<svg width="34" height="34" viewBox="0 0 34 34" fill="none" xmlns="http://www.w3.org/2000/svg">
<g id="circle-flags:us" clip-path="url(#clip0_808_566)">
<g id="Mask group">
<mask id="mask0_808_566" style="mask-type:luminance" maskUnits="userSpaceOnUse" x="0" y="0" width="34" height="34">
<g id="Group">
<path id="Vector" d="M17.4805 33.9102C26.5932 33.9102 33.9805 26.5229 33.9805 17.4102C33.9805 8.29746 26.5932 0.910156 17.4805 0.910156C8.36777 0.910156 0.980469 8.29746 0.980469 17.4102C0.980469 26.5229 8.36777 33.9102 17.4805 33.9102Z" fill="white"/>
</g>
</mask>
<g mask="url(#mask0_808_566)">
<g id="Group_2">
<path id="Vector_2" d="M17.4805 0.910156H33.9805V5.03516L31.918 7.09766L33.9805 9.16016V13.2852L31.918 15.3477L33.9805 17.4102V21.5352L31.918 23.5977L33.9805 25.6602V29.7852L17.4805 31.8477L0.980469 29.7852V25.6602L3.04297 23.5977L0.980469 21.5352V17.4102L17.4805 0.910156Z" fill="#EEEEEE"/>
<path id="Vector_3" d="M15.418 5.03516H33.9805V9.16016H15.418V5.03516ZM15.418 13.2852H33.9805V17.4102H17.4805L15.418 13.2852ZM0.980469 21.5352H33.9805V25.6602H0.980469V21.5352ZM0.980469 29.7852H33.9805V33.9102H0.980469V29.7852Z" fill="#D80027"/>
<path id="Vector_4" d="M0.980469 0.910156H17.4805V17.4102H0.980469V0.910156Z" fill="#0052B4"/>
<path id="Vector_5" d="M13.0332 16.5723L16.707 13.9297H12.1953L15.8691 16.5723L14.4512 12.2539L13.0332 16.5723ZM7.8125 16.5723L11.4863 13.9297H6.97461L10.6484 16.5723L9.23047 12.2539L7.8125 16.5723ZM2.5918 16.5723L6.26562 13.9297H1.75391L5.42773 16.5723L4.00977 12.2539L2.5918 16.5723ZM13.0332 11.3516L16.707 8.70898H12.1953L15.8691 11.3516L14.4512 7.0332L13.0332 11.3516ZM7.8125 11.3516L11.4863 8.70898H6.97461L10.6484 11.3516L9.23047 7.0332L7.8125 11.3516ZM2.5918 11.3516L6.26562 8.70898H1.75391L5.42773 11.3516L4.00977 7.0332L2.5918 11.3516ZM13.0332 6.06641L16.707 3.42383H12.1953L15.8691 6.06641L14.4512 1.74805L13.0332 6.06641ZM7.8125 6.06641L11.4863 3.42383H6.97461L10.6484 6.06641L9.23047 1.74805L7.8125 6.06641ZM2.5918 6.06641L6.26562 3.42383H1.75391L5.42773 6.06641L4.00977 1.74805L2.5918 6.06641Z" fill="#EEEEEE"/>
</g>
</g>
</g>
</g>
<defs>
<clipPath id="clip0_808_566">
<rect width="33" height="33" fill="white" transform="translate(0.980469 0.910156)"/>
</clipPath>
</defs>
</svg>
