<svg width="30" height="31" viewBox="0 0 30 31" fill="none" xmlns="http://www.w3.org/2000/svg">
<rect x="0.5" y="1.32227" width="29" height="29" rx="5.5" stroke="#E5E7EB"/>
<g clip-path="url(#clip0_753_3012)">
<path d="M14.5366 11.7175C12.3961 11.7175 10.6686 13.5507 10.6686 15.8223C10.6686 18.0938 12.3961 19.9271 14.5366 19.9271C16.6771 19.9271 18.4045 18.0938 18.4045 15.8223C18.4045 13.5507 16.6771 11.7175 14.5366 11.7175ZM14.5366 18.4901C13.1523 18.4901 12.0227 17.2913 12.0227 15.8223C12.0227 14.3533 13.1523 13.1545 14.5366 13.1545C15.9208 13.1545 17.0505 14.3533 17.0505 15.8223C17.0505 17.2913 15.9208 18.4901 14.5366 18.4901ZM18.563 10.5927C18.0632 10.5927 17.6596 11.021 17.6596 11.5514C17.6596 12.0817 18.0632 12.51 18.563 12.51C19.0627 12.51 19.4663 12.0837 19.4663 11.5514C19.4664 11.4254 19.4432 11.3007 19.3978 11.1843C19.3525 11.068 19.286 10.9622 19.202 10.8732C19.1181 10.7841 19.0185 10.7135 18.9088 10.6654C18.7992 10.6173 18.6816 10.5926 18.563 10.5927ZM22.0764 15.8223C22.0764 14.7175 22.0858 13.6228 22.0273 12.52C21.9689 11.2392 21.6935 10.1024 20.8109 9.16577C19.9264 8.22713 18.8571 7.93694 17.6502 7.8749C16.6092 7.81285 15.5776 7.82286 14.5385 7.82286C13.4974 7.82286 12.4659 7.81285 11.4267 7.8749C10.2198 7.93694 9.14859 8.22914 8.26599 9.16577C7.38151 10.1044 7.10806 11.2392 7.04959 12.52C6.99113 13.6248 7.00056 14.7195 7.00056 15.8223C7.00056 16.925 6.99113 18.0218 7.04959 19.1245C7.10806 20.4054 7.3834 21.5422 8.26599 22.4788C9.15048 23.4174 10.2198 23.7076 11.4267 23.7697C12.4678 23.8317 13.4993 23.8217 14.5385 23.8217C15.5795 23.8217 16.611 23.8317 17.6502 23.7697C18.8571 23.7076 19.9283 23.4154 20.8109 22.4788C21.6954 21.5402 21.9689 20.4054 22.0273 19.1245C22.0877 18.0218 22.0764 16.927 22.0764 15.8223ZM20.4168 20.5415C20.2791 20.9057 20.1132 21.1779 19.8472 21.4581C19.5813 21.7403 19.3267 21.9164 18.9835 22.0625C17.9915 22.4808 15.6361 22.3867 14.5366 22.3867C13.4371 22.3867 11.0797 22.4808 10.0878 22.0645C9.74453 21.9184 9.48805 21.7423 9.22402 21.4601C8.95811 21.1779 8.79216 20.9077 8.65449 20.5435C8.26222 19.4888 8.35086 16.9891 8.35086 15.8223C8.35086 14.6555 8.26222 12.1538 8.65449 11.1011C8.79216 10.7368 8.95811 10.4646 9.22402 10.1845C9.48994 9.90427 9.74453 9.72615 10.0878 9.58005C11.0797 9.16377 13.4371 9.25783 14.5366 9.25783C15.6361 9.25783 17.9934 9.16377 18.9854 9.58005C19.3286 9.72615 19.5851 9.90227 19.8491 10.1845C20.115 10.4666 20.281 10.7368 20.4187 11.1011C20.8109 12.1538 20.7223 14.6555 20.7223 15.8223C20.7223 16.9891 20.8109 19.4888 20.4168 20.5415Z" fill="#929292"/>
</g>
<defs>
<clipPath id="clip0_753_3012">
<rect width="16" height="16" fill="white" transform="translate(7 7.82227)"/>
</clipPath>
</defs>
</svg>
