<svg width="30" height="31" viewBox="0 0 30 31" fill="none" xmlns="http://www.w3.org/2000/svg">
<rect x="0.5" y="1.32227" width="29" height="29" rx="5.5" stroke="#E5E7EB"/>
<g clip-path="url(#clip0_753_2992)">
<path d="M15.3968 14.9886C14.9549 14.5469 14.3558 14.2988 13.7311 14.2988C13.1063 14.2988 12.5072 14.5469 12.0653 14.9886L10.3991 16.6543C9.95721 17.0962 9.70898 17.6954 9.70898 18.3203C9.70898 18.9452 9.95721 19.5445 10.3991 19.9863C10.8409 20.4281 11.4402 20.6764 12.0651 20.6764C12.6899 20.6764 13.2892 20.4281 13.7311 19.9863L14.5639 19.1534" stroke="#929292" stroke-width="1.33333" stroke-linecap="round" stroke-linejoin="round"/>
<path d="M13.7305 16.6546C14.1723 17.0963 14.7715 17.3444 15.3962 17.3444C16.0209 17.3444 16.6201 17.0963 17.0619 16.6546L18.7282 14.9889C19.1701 14.547 19.4183 13.9477 19.4183 13.3229C19.4183 12.698 19.1701 12.0987 18.7282 11.6569C18.2863 11.215 17.6871 10.9668 17.0622 10.9668C16.4373 10.9668 15.838 11.215 15.3962 11.6569L14.5633 12.4897" stroke="#929292" stroke-width="1.33333" stroke-linecap="round" stroke-linejoin="round"/>
</g>
<defs>
<clipPath id="clip0_753_2992">
<rect width="12" height="12" fill="white" transform="translate(9 9.82227)"/>
</clipPath>
</defs>
</svg>
