<svg width="30" height="30" viewBox="0 0 30 30" fill="none" xmlns="http://www.w3.org/2000/svg">
<g clip-path="url(#clip0_802_355)">
<path d="M15.5463 12.9882C14.4785 11.9209 13.0305 11.3213 11.5208 11.3213C10.011 11.3213 8.56305 11.9209 7.49527 12.9882L3.46847 17.0137C2.40067 18.0815 1.80078 19.5298 1.80078 21.0399C1.80078 22.55 2.40067 23.9982 3.46847 25.066C4.53628 26.1337 5.98451 26.7338 7.49462 26.7338C9.00472 26.7338 10.453 26.1337 11.5208 25.066L13.5335 23.0533" stroke="white" stroke-width="3.55555" stroke-linecap="round" stroke-linejoin="round"/>
<path d="M11.5156 17.0131C12.5834 18.0804 14.0314 18.68 15.5411 18.68C17.0509 18.68 18.4989 18.0804 19.5667 17.0131L23.5934 12.9876C24.6614 11.9198 25.2612 10.4715 25.2612 8.96141C25.2612 7.45134 24.6614 6.00308 23.5934 4.93527C22.5256 3.86747 21.0774 3.26758 19.5673 3.26758C18.0572 3.26758 16.6089 3.86747 15.5411 4.93527L13.5284 6.94802" stroke="white" stroke-width="3.55555" stroke-linecap="round" stroke-linejoin="round"/>
</g>
<defs>
<clipPath id="clip0_802_355">
<rect width="29" height="29" fill="white" transform="translate(0.0859375 0.5)"/>
</clipPath>
</defs>
</svg>
