<svg width="30" height="33" viewBox="0 0 30 33" fill="none" xmlns="http://www.w3.org/2000/svg">
<path d="M14.189 7.14495C14.1841 6.97305 14.1793 6.80358 14.1817 6.63652C14.1817 6.59537 14.1841 6.55421 14.1865 6.51063C14.1914 6.36537 14.1962 6.22011 14.2059 6.07969C14.2107 6.01916 14.2156 5.96106 14.2204 5.90053C14.2325 5.77221 14.2446 5.64632 14.2616 5.52042C14.2688 5.46716 14.2761 5.41147 14.2834 5.35821C14.3076 5.19116 14.3366 5.02653 14.3705 4.86432C14.3705 4.85948 14.3705 4.85221 14.373 4.84737C14.4069 4.68274 14.448 4.52537 14.4916 4.368C14.5037 4.32684 14.5158 4.28568 14.5279 4.24452C14.5545 4.15253 14.586 4.06295 14.6151 3.97337C14.6514 3.86684 14.6877 3.76274 14.7288 3.65863C14.7603 3.57874 14.7918 3.50127 14.8233 3.42622C14.8547 3.35358 14.8886 3.28095 14.9225 3.20832C14.9637 3.12358 15.0048 3.03884 15.0484 2.95895C15.0775 2.90084 15.109 2.84516 15.1404 2.78948C15.1913 2.69748 15.247 2.61032 15.3026 2.52074C15.3293 2.47958 15.3535 2.43843 15.3801 2.39727C15.4624 2.2738 15.5496 2.15274 15.6392 2.03895C15.6488 2.02685 15.661 2.01474 15.6706 2.00264C15.753 1.90095 15.8377 1.80411 15.9248 1.70969C15.9539 1.67822 15.9854 1.64674 16.0144 1.61769C16.0895 1.54022 16.1645 1.46758 16.2444 1.39737C16.2735 1.37074 16.3025 1.34411 16.334 1.31748C16.4405 1.22548 16.5495 1.1359 16.6633 1.05358C16.6754 1.0439 16.6899 1.03664 16.702 1.02695C16.8037 0.954323 16.9078 0.886532 17.0143 0.821163C17.0531 0.796953 17.0942 0.775164 17.133 0.753374C17.2443 0.690427 17.3557 0.627482 17.4719 0.574219L15.3317 1.58137C15.2615 1.61526 15.1913 1.64916 15.1235 1.68548C15.0799 1.70969 15.0363 1.73632 14.9927 1.76053C14.954 1.78232 14.9128 1.80653 14.8741 1.82832C14.8523 1.84043 14.8305 1.85253 14.8087 1.86706C14.724 1.92032 14.6441 1.97601 14.5618 2.03411C14.5497 2.0438 14.5352 2.05106 14.5231 2.06074C14.5206 2.06074 14.5182 2.06316 14.5158 2.06558C14.4214 2.13579 14.3294 2.20601 14.2398 2.28348C14.2253 2.29559 14.2107 2.31011 14.1938 2.32463C14.1647 2.35127 14.1357 2.3779 14.1042 2.40453C14.0631 2.44327 14.0195 2.47959 13.9783 2.51832C13.942 2.55222 13.9105 2.59095 13.8742 2.62485C13.8452 2.65632 13.8137 2.68537 13.7846 2.71684C13.7677 2.73621 13.7483 2.75316 13.729 2.77253C13.6612 2.85 13.5934 2.9299 13.5304 3.0098C13.5207 3.0219 13.5086 3.034 13.499 3.04611C13.499 3.04853 13.4941 3.05095 13.4917 3.05337C13.4142 3.15264 13.3367 3.25674 13.2641 3.36327C13.2544 3.37779 13.2472 3.39232 13.2375 3.40443C13.2109 3.44559 13.1866 3.48674 13.16 3.5279C13.1213 3.58842 13.0825 3.64653 13.0462 3.70948C13.0293 3.73853 13.0147 3.76758 13.0002 3.79664C12.9687 3.85232 12.9373 3.91042 12.9082 3.96611C12.884 4.01211 12.8574 4.05327 12.8356 4.09927C12.8162 4.138 12.8017 4.17674 12.7823 4.21547C12.7484 4.28811 12.7145 4.36074 12.6831 4.43337C12.6661 4.47453 12.6467 4.51085 12.6298 4.552C12.6153 4.58832 12.6032 4.62948 12.5886 4.66579C12.5475 4.7699 12.5112 4.874 12.4748 4.98053C12.4603 5.02653 12.441 5.06769 12.4264 5.11369C12.4119 5.15969 12.3998 5.20568 12.3877 5.25168C12.3756 5.29284 12.3635 5.334 12.3514 5.37516C12.3078 5.53011 12.2691 5.6899 12.2327 5.85211C12.2327 5.85211 12.2327 5.85211 12.2327 5.85453C12.2327 5.86179 12.2327 5.86905 12.2279 5.87389C12.194 6.03368 12.1674 6.19832 12.1407 6.36537C12.1335 6.41863 12.1262 6.47432 12.119 6.52758C12.102 6.65105 12.0899 6.77937 12.0778 6.90526C12.073 6.96579 12.0681 7.02389 12.0633 7.08442C12.0536 7.22484 12.0463 7.3701 12.0439 7.51537C12.0439 7.55895 12.0391 7.60011 12.0391 7.64127C12.0391 7.65337 12.0391 7.66548 12.0391 7.67758C12.0391 7.772 12.0391 7.86642 12.0391 7.96084C12.0391 8.02379 12.0439 8.08673 12.0463 8.14968C12.0463 8.20294 12.0487 8.25621 12.0536 8.31189C12.0633 8.50316 12.0754 8.69684 12.0947 8.89295L14.235 7.88579C14.2156 7.68968 14.2035 7.496 14.1938 7.30474C14.1914 7.25147 14.189 7.19579 14.1865 7.14252L14.189 7.14495Z" fill="url(#paint0_linear_838_2595)"/>
<path d="M22.6108 0.738973C20.7926 -0.0454478 19.1391 -0.0866057 17.7881 0.436341C15.3283 1.39024 13.8709 4.22287 14.2413 7.89076C11.8372 5.01213 8.73097 3.9517 6.27118 4.9056C4.92023 5.42855 3.76539 6.5616 3.02939 8.33623C1.04655 13.1251 3.73634 21.4946 11.1109 24.6129C18.742 27.8378 21.2163 27.4238 24.0683 31.0844C23.4534 26.5546 25.5306 25.2037 28.6586 17.8074C31.6801 10.6556 27.5183 2.85739 22.6084 0.741396L22.6108 0.738973Z" fill="url(#paint1_linear_838_2595)"/>
<path style="mix-blend-mode:screen" d="M22.6108 0.738973C20.7926 -0.0454478 19.1391 -0.0866057 17.7881 0.436341C15.3283 1.39024 13.8709 4.22287 14.2413 7.89076C11.8372 5.01213 8.73097 3.9517 6.27118 4.9056C4.92023 5.42855 3.76539 6.5616 3.02939 8.33623C1.04655 13.1251 3.73634 21.4946 11.1109 24.6129C18.742 27.8378 21.2163 27.4238 24.0683 31.0844C23.4534 26.5546 25.5306 25.2037 28.6586 17.8074C31.6801 10.6556 27.5183 2.85739 22.6084 0.741396L22.6108 0.738973ZM25.9834 23.3443C24.4775 26.2883 23.635 27.9371 24.0005 30.9149C22.0952 28.5326 20.2915 27.9128 17.0666 26.8016C15.5123 26.2665 13.5803 25.6007 11.1326 24.5669C3.45791 21.3227 1.23539 12.7982 3.07539 8.35317C3.77265 6.67054 4.88392 5.49391 6.28813 4.94918C6.86676 4.72402 7.48654 4.61023 8.13054 4.61023C10.2344 4.61023 12.4473 5.81592 14.205 7.91981C14.2146 7.93191 14.2292 7.93675 14.2413 7.93675C14.2485 7.93675 14.2534 7.93675 14.2606 7.93191C14.28 7.92465 14.2921 7.90286 14.2897 7.88349C13.9338 4.3536 15.3138 1.44592 17.8051 0.479918C18.3934 0.25234 19.0325 0.136133 19.7032 0.136133C20.6256 0.136133 21.5964 0.354024 22.5915 0.78255C27.1479 2.74602 31.76 10.3433 28.6151 17.7856C27.6103 20.1582 26.7073 21.9256 25.9834 23.3443Z" fill="url(#paint2_linear_838_2595)"/>
<path d="M10.6026 26.2828C10.6825 26.3143 10.7624 26.3458 10.8423 26.3772C11.0529 26.4595 11.2587 26.5394 11.462 26.6169C11.4984 26.6314 11.5395 26.646 11.5758 26.6605C11.8131 26.7501 12.0455 26.8372 12.2707 26.9195C12.336 26.9438 12.399 26.9655 12.4619 26.9897C12.6266 27.0503 12.7888 27.1084 12.9486 27.1665C13.0164 27.1907 13.0866 27.2149 13.1544 27.2391C13.319 27.2972 13.4812 27.3553 13.6386 27.411C13.6822 27.4255 13.7281 27.4425 13.7717 27.4594C13.9727 27.5296 14.1688 27.5974 14.36 27.6628C14.4206 27.6846 14.4787 27.704 14.5368 27.7233C14.7038 27.7814 14.8685 27.8371 15.0258 27.8928C15.1662 27.9412 15.3018 27.9872 15.4374 28.0356C15.4907 28.055 15.5439 28.072 15.5972 28.0913C15.7691 28.1518 15.9386 28.21 16.1032 28.2681C16.1226 28.2753 16.1419 28.2826 16.1613 28.2899C16.2993 28.3383 16.4349 28.3867 16.568 28.4351C16.6165 28.4521 16.6649 28.4714 16.7109 28.4884C16.8198 28.5295 16.9264 28.5683 17.0305 28.6094C17.0765 28.6264 17.1225 28.6433 17.166 28.6627C17.304 28.716 17.4396 28.7692 17.5704 28.8249C17.5776 28.8273 17.5825 28.8297 17.5897 28.8322C17.7253 28.8878 17.8585 28.946 17.9892 29.0041C18.0279 29.021 18.0667 29.038 18.1054 29.0573C18.1998 29.1009 18.2918 29.1445 18.3838 29.1881C18.425 29.2074 18.4637 29.2268 18.5049 29.2462C18.609 29.297 18.7082 29.3503 18.8099 29.4035C18.8317 29.4156 18.8535 29.4277 18.8777 29.4374C18.9939 29.5004 19.1077 29.5657 19.2191 29.6311C19.2481 29.6481 19.2772 29.6674 19.3063 29.6844C19.3886 29.7352 19.4709 29.7861 19.5532 29.8393C19.5847 29.8587 19.6137 29.8805 19.6452 29.8999C19.7929 29.9991 19.9381 30.1032 20.081 30.2122C20.1028 30.2291 20.1221 30.2436 20.1415 30.2606C20.2408 30.3381 20.34 30.418 20.4369 30.5027C20.4684 30.5293 20.4998 30.556 20.5313 30.585C20.6209 30.6649 20.7105 30.7448 20.8 30.8295C20.817 30.8465 20.8364 30.861 20.8533 30.878C20.955 30.9772 21.0567 31.0789 21.1584 31.1879C21.1874 31.2169 21.214 31.2484 21.2431 31.2799C21.3181 31.3598 21.3908 31.4421 21.4658 31.5268C21.4997 31.5655 21.5336 31.6067 21.5675 31.6454C21.645 31.7374 21.7249 31.8343 21.8048 31.9311C21.8459 31.9844 21.8895 32.0328 21.9307 32.0885L24.0709 31.0813C24.0491 31.0523 24.0273 31.0256 24.0055 30.999C23.9861 30.9724 23.9644 30.9506 23.945 30.9264C23.8651 30.8271 23.7876 30.7327 23.7077 30.6407C23.6908 30.6189 23.6714 30.5947 23.652 30.5753C23.6375 30.5584 23.6206 30.5414 23.606 30.5221C23.531 30.4373 23.4559 30.355 23.3833 30.2751C23.3615 30.2533 23.3421 30.2267 23.3204 30.2049C23.3131 30.1976 23.3058 30.1904 23.301 30.1831C23.1993 30.0766 23.0976 29.9725 22.9959 29.8732C22.9935 29.8708 22.9887 29.866 22.9862 29.8635C22.9717 29.849 22.9572 29.8369 22.9427 29.8248C22.8531 29.7401 22.7659 29.6577 22.6763 29.5803C22.6618 29.5682 22.6473 29.5536 22.6352 29.5415C22.6182 29.527 22.5989 29.5125 22.5819 29.498C22.4851 29.4156 22.3858 29.3333 22.2866 29.2558C22.272 29.2437 22.2551 29.2292 22.2406 29.2171C22.2357 29.2123 22.2309 29.2098 22.226 29.2074C22.0832 29.0985 21.9379 28.9944 21.7902 28.8951C21.7757 28.8854 21.7612 28.8733 21.7467 28.8636C21.7297 28.854 21.7128 28.8443 21.6982 28.8322C21.6184 28.7789 21.536 28.7281 21.4537 28.6772C21.4247 28.6603 21.3956 28.6409 21.3666 28.624C21.2552 28.5562 21.1414 28.4932 21.0252 28.4303C21.0203 28.4303 21.0179 28.4254 21.0131 28.423C20.9961 28.4133 20.9768 28.4036 20.9574 28.394C20.8581 28.3407 20.7565 28.2874 20.6524 28.2366C20.6136 28.2172 20.5725 28.1978 20.5313 28.1785C20.4393 28.1349 20.3473 28.0913 20.2529 28.0477C20.2141 28.0308 20.1754 28.0139 20.1367 27.9945C20.0059 27.9364 19.8728 27.8783 19.7372 27.8226C19.7299 27.8202 19.7251 27.8177 19.7178 27.8153C19.5847 27.7621 19.4491 27.7064 19.3135 27.6531C19.2675 27.6362 19.2215 27.6192 19.1779 27.5999C19.0738 27.5587 18.9649 27.52 18.8584 27.4788C18.8099 27.4619 18.7639 27.4425 18.7155 27.4255C18.5824 27.3771 18.4468 27.3287 18.3088 27.2803C18.2894 27.273 18.27 27.2657 18.2507 27.2585C18.086 27.2004 17.9166 27.1423 17.7447 27.0817C17.6938 27.0648 17.6406 27.0454 17.5873 27.0285C17.4517 26.9801 17.3113 26.9341 17.1685 26.8832C17.0111 26.83 16.8465 26.7719 16.6818 26.7162C16.6237 26.6968 16.5656 26.675 16.5051 26.6556C16.3138 26.5903 16.1177 26.5225 15.9168 26.4523C15.8732 26.4378 15.8272 26.4208 15.7812 26.4039C15.6238 26.3482 15.4616 26.2901 15.297 26.232C15.2292 26.2077 15.1614 26.1835 15.0912 26.1593C14.9338 26.1012 14.7692 26.0431 14.6046 25.9826C14.5416 25.9584 14.4787 25.9366 14.4133 25.9124C14.1881 25.8301 13.9557 25.7429 13.7185 25.6533C13.6821 25.6388 13.641 25.6243 13.6047 25.6097C13.4037 25.5323 13.1979 25.4524 12.9873 25.3701C12.9074 25.3386 12.8275 25.3071 12.7476 25.2756C12.5636 25.203 12.3748 25.128 12.1835 25.0505C12.1036 25.019 12.0237 24.9875 11.9438 24.9537C11.6751 24.8447 11.3991 24.7309 11.1158 24.6099C10.8955 24.5154 10.6776 24.4186 10.4646 24.3145C10.3944 24.2806 10.3242 24.2419 10.2539 24.208C10.1135 24.1378 9.9731 24.0675 9.83752 23.9925C9.76005 23.9513 9.68499 23.9053 9.60994 23.8642C9.48647 23.794 9.36057 23.7213 9.23952 23.6487C9.15963 23.6003 9.08216 23.5494 9.00226 23.4986C8.90058 23.4332 8.80131 23.3679 8.70205 23.3025C8.45752 23.1379 8.21784 22.9684 7.98784 22.7892C7.96121 22.7674 7.93457 22.7456 7.90794 22.7263C7.73121 22.5883 7.56173 22.4479 7.39226 22.305C7.31478 22.2372 7.23974 22.1694 7.16226 22.0992C7.06542 22.0121 6.96615 21.9225 6.87173 21.8329C6.78942 21.7554 6.71195 21.6755 6.63205 21.5981C6.54974 21.5182 6.46984 21.4359 6.38995 21.3535C6.30521 21.2664 6.22532 21.1768 6.143 21.0872C6.07763 21.017 6.01226 20.9468 5.94931 20.8742C5.86216 20.7749 5.77984 20.6732 5.69511 20.574C5.64184 20.511 5.58858 20.4481 5.53774 20.3827C5.43848 20.2592 5.34405 20.1309 5.24963 20.005C5.21816 19.9639 5.18668 19.9227 5.15521 19.8815C5.03174 19.7121 4.9131 19.5402 4.79689 19.3683C4.76784 19.3247 4.74121 19.2811 4.71458 19.2375C4.62984 19.1068 4.5451 18.9761 4.46521 18.8429C4.42163 18.7703 4.38047 18.6977 4.33932 18.625C4.27637 18.5185 4.21342 18.4095 4.15531 18.303C4.10931 18.2207 4.06816 18.1384 4.02458 18.0537C3.97132 17.952 3.91805 17.8503 3.86721 17.7486C3.82121 17.6542 3.77521 17.5573 3.73163 17.4629C3.68805 17.3685 3.64206 17.2741 3.6009 17.1796C3.54764 17.0562 3.49679 16.9351 3.44595 16.8117C3.41447 16.7342 3.38058 16.6543 3.34911 16.5768C3.26679 16.3638 3.1869 16.1507 3.11427 15.9352C3.11427 15.9304 3.11426 15.928 3.11184 15.9231C3.03437 15.6907 2.96416 15.4559 2.89879 15.2234C2.86974 15.1193 2.84311 15.0177 2.81647 14.9135C2.79953 14.8433 2.78016 14.7731 2.76321 14.7029C2.73416 14.577 2.70511 14.4536 2.6809 14.3277C2.66879 14.2696 2.65427 14.2114 2.64458 14.1533C2.63005 14.0807 2.62037 14.0081 2.60584 13.9354C2.58163 13.8047 2.55985 13.6716 2.54048 13.5408C2.52837 13.4585 2.51869 13.3786 2.509 13.2987C2.49448 13.1777 2.47753 13.059 2.46784 12.938C2.46058 12.8532 2.45332 12.7685 2.44605 12.6862C2.43637 12.5724 2.42911 12.4562 2.42426 12.3424C2.41942 12.2577 2.417 12.1729 2.41458 12.0882C2.41216 11.9768 2.40974 11.8654 2.40974 11.7565C2.40974 11.65 2.40974 11.5434 2.41458 11.4369C2.41458 11.3716 2.41942 11.3038 2.42184 11.2384C2.42668 11.1319 2.43395 11.0278 2.44363 10.9237C2.44847 10.8583 2.45332 10.7953 2.46058 10.73C2.47026 10.621 2.48479 10.5145 2.49932 10.408C2.50658 10.3499 2.51384 10.2918 2.52353 10.2361C2.5429 10.1078 2.56468 9.98429 2.58889 9.85839C2.59616 9.8245 2.601 9.79061 2.60827 9.75671C2.63974 9.60419 2.67606 9.45166 2.71479 9.30398C2.7269 9.26282 2.739 9.22166 2.75111 9.1805C2.77774 9.08124 2.80921 8.9844 2.84069 8.88756C2.88911 8.73987 2.93995 8.59703 2.99564 8.45418C3.01016 8.41545 3.02468 8.37429 3.04163 8.33556C3.12152 8.14187 3.20869 7.95787 3.29827 7.77871C3.3249 7.72545 3.35395 7.67702 3.38058 7.62618C3.44595 7.50513 3.51132 7.38408 3.58153 7.26787C3.613 7.21703 3.64448 7.16861 3.67595 7.11777C3.74616 7.00882 3.81879 6.90229 3.89142 6.80061C3.92289 6.75945 3.95195 6.71587 3.98342 6.67713C4.08753 6.54156 4.19163 6.41082 4.30058 6.28977C4.30542 6.28492 4.30784 6.2825 4.31268 6.27766C4.41921 6.15903 4.53058 6.05008 4.64437 5.94356C4.67584 5.9145 4.70731 5.88545 4.73879 5.85639C4.84047 5.76682 4.94216 5.68208 5.04868 5.59976C5.06805 5.58524 5.08742 5.56829 5.10679 5.55376C5.23026 5.46176 5.35616 5.37703 5.48448 5.29956C5.51837 5.27777 5.55468 5.2584 5.591 5.23903C5.71447 5.1664 5.83795 5.09861 5.96626 5.03809L3.82605 6.04524C3.75342 6.07913 3.68321 6.11545 3.613 6.15176C3.55732 6.18082 3.50405 6.21471 3.45079 6.24619C3.41447 6.26556 3.38058 6.28492 3.34426 6.30671C3.32731 6.31882 3.30794 6.32608 3.291 6.33819C3.18931 6.40356 3.08763 6.47134 2.98837 6.54397C2.9811 6.54881 2.97384 6.55608 2.96658 6.56092C2.94721 6.57545 2.92784 6.5924 2.90605 6.60692C2.83584 6.66019 2.76564 6.71345 2.70027 6.76914C2.66637 6.79819 2.63248 6.83208 2.59858 6.86114C2.56711 6.89019 2.53563 6.91924 2.50416 6.94829C2.47752 6.9725 2.4509 6.99429 2.42426 7.02092C2.33711 7.10324 2.25479 7.19282 2.17247 7.2824C2.16763 7.28724 2.16521 7.28966 2.16037 7.2945C2.16037 7.2945 2.16037 7.2945 2.15795 7.29692C2.06837 7.39619 1.98121 7.49787 1.89889 7.60682C1.87953 7.63103 1.86258 7.65766 1.84321 7.68187C1.81174 7.72303 1.78269 7.76419 1.75121 7.80535C1.7149 7.85377 1.67858 7.90218 1.64226 7.95303C1.60595 8.00629 1.57205 8.06682 1.53574 8.1225C1.50426 8.17092 1.47279 8.22176 1.44132 8.27261C1.42437 8.29924 1.40743 8.32345 1.39048 8.35008C1.33722 8.43966 1.2888 8.5365 1.24037 8.6285C1.21374 8.67934 1.18468 8.72776 1.15805 8.7786C1.15321 8.79071 1.14595 8.8004 1.13869 8.8125C1.05637 8.97956 0.976474 9.15387 0.901422 9.33545C0.89658 9.34756 0.891738 9.35966 0.886896 9.37177C0.874791 9.3984 0.867529 9.42745 0.857845 9.45408C0.802161 9.59692 0.748901 9.73977 0.702901 9.88745C0.695638 9.90924 0.685953 9.93103 0.678689 9.95282C0.654479 10.0279 0.635106 10.1053 0.613316 10.1804C0.601211 10.2216 0.589107 10.2627 0.577002 10.3039C0.538265 10.4467 0.504372 10.5944 0.472899 10.7421C0.472899 10.7469 0.472896 10.7518 0.470475 10.7566C0.463212 10.7905 0.458373 10.8244 0.45111 10.8583C0.4269 10.9818 0.405105 11.1077 0.385737 11.236C0.376053 11.2941 0.371217 11.3498 0.361532 11.4079C0.347006 11.5144 0.3349 11.6209 0.322795 11.7299C0.315532 11.7952 0.310688 11.8582 0.305846 11.9235C0.298582 12.0277 0.29132 12.1318 0.284057 12.2383C0.281636 12.3037 0.276792 12.3714 0.274371 12.4368C0.274371 12.4756 0.269531 12.5119 0.269531 12.5506C0.269531 12.5772 0.269531 12.6063 0.269531 12.6353C0.269531 12.6765 0.269531 12.7177 0.269531 12.7588C0.269531 12.8678 0.269529 12.9791 0.274371 13.0905C0.274371 13.1752 0.279215 13.26 0.284057 13.3447C0.288899 13.4585 0.298582 13.5723 0.305846 13.6885C0.313109 13.7732 0.31795 13.8555 0.327634 13.9403C0.339739 14.0589 0.354269 14.18 0.368795 14.301C0.378479 14.3809 0.388165 14.4632 0.40027 14.5431C0.419638 14.6739 0.443846 14.8046 0.465636 14.9378C0.477741 14.9983 0.485005 15.0588 0.497111 15.1218C0.497111 15.1339 0.501952 15.146 0.504373 15.1581C0.516479 15.2162 0.528582 15.2743 0.540688 15.3324C0.567319 15.4583 0.59395 15.5818 0.623003 15.7077C0.63995 15.7779 0.659319 15.8481 0.676266 15.9183C0.695634 15.9933 0.712579 16.0684 0.734369 16.1459C0.741632 16.1725 0.751318 16.2015 0.758581 16.2282C0.823949 16.4606 0.894161 16.6954 0.971634 16.9279C0.971634 16.9303 0.971637 16.9351 0.974058 16.9375C1.04669 17.1506 1.12658 17.3661 1.2089 17.5791C1.21616 17.5937 1.221 17.6106 1.22584 17.6251C1.25005 17.6881 1.27911 17.751 1.30574 17.814C1.35658 17.9374 1.40742 18.0585 1.46068 18.182C1.47037 18.2062 1.48005 18.2304 1.49216 18.2546C1.52363 18.3248 1.55995 18.395 1.59142 18.4652C1.63742 18.5621 1.681 18.6565 1.727 18.7509C1.73911 18.7751 1.75121 18.8018 1.76332 18.826C1.80205 18.9034 1.84321 18.9785 1.88437 19.0536C1.92795 19.1359 1.97153 19.2206 2.01511 19.3029C2.02721 19.3247 2.0369 19.3465 2.049 19.3659C2.09743 19.453 2.15069 19.5378 2.19911 19.6249C2.24027 19.6975 2.28142 19.7702 2.325 19.8428C2.33468 19.8573 2.34195 19.8719 2.35164 19.8864C2.42427 20.005 2.49932 20.1212 2.57679 20.2374C2.60584 20.281 2.63248 20.3246 2.65911 20.3682C2.66153 20.373 2.66395 20.3779 2.66879 20.3827C2.77774 20.5449 2.89153 20.7071 3.00774 20.8669C3.01016 20.8718 3.015 20.8766 3.01742 20.8814C3.0489 20.9226 3.08037 20.9637 3.11184 21.0073C3.19658 21.1211 3.2789 21.2325 3.36606 21.3439C3.37574 21.3584 3.38784 21.3705 3.39995 21.3826C3.45079 21.448 3.50405 21.5109 3.55731 21.5739C3.6251 21.6538 3.68806 21.7361 3.75827 21.816C3.77521 21.8353 3.79458 21.8547 3.81153 21.8741C3.87448 21.9467 3.93984 22.0169 4.00279 22.0871C4.06331 22.1525 4.12142 22.2203 4.18195 22.2856C4.20374 22.3099 4.22795 22.3316 4.24974 22.3534C4.32963 22.4357 4.40953 22.5156 4.49184 22.598C4.54995 22.6561 4.60563 22.7142 4.66374 22.7723C4.68553 22.7941 4.70974 22.8134 4.73153 22.8352C4.82595 22.9248 4.92521 23.012 5.02205 23.1015C5.08258 23.1548 5.13826 23.2105 5.19879 23.2637C5.21573 23.2783 5.2351 23.2928 5.25205 23.3073C5.4191 23.4502 5.591 23.5906 5.76531 23.7286C5.78952 23.748 5.81374 23.7698 5.83795 23.7867C5.84037 23.7867 5.84279 23.7915 5.84521 23.7915C6.07521 23.9683 6.31489 24.1377 6.55942 24.3048C6.58847 24.3242 6.61269 24.3435 6.64174 24.3629C6.71437 24.4113 6.787 24.4549 6.85963 24.5009C6.9371 24.5518 7.017 24.6002 7.09447 24.651C7.21553 24.7261 7.339 24.7963 7.46489 24.8665C7.53995 24.9101 7.615 24.9536 7.69247 24.9948C7.71184 25.0045 7.73121 25.0166 7.75058 25.0263C7.86921 25.0892 7.99026 25.1498 8.11131 25.2103C8.18152 25.2466 8.24932 25.2829 8.32195 25.3168C8.535 25.4185 8.75047 25.5177 8.9732 25.6122C9.25647 25.7308 9.53005 25.8446 9.80121 25.956C9.8811 25.9898 9.96099 26.0213 10.0409 26.0528C10.2322 26.1303 10.421 26.2053 10.6074 26.278L10.6026 26.2828Z" fill="url(#paint3_linear_838_2595)"/>
<defs>
<linearGradient id="paint0_linear_838_2595" x1="15.5568" y1="9.23189" x2="14.4214" y2="2.63453" gradientUnits="userSpaceOnUse">
<stop stop-color="#6F1210"/>
<stop offset="0.02" stop-color="#65100F"/>
<stop offset="0.08" stop-color="#470D0D"/>
<stop offset="0.14" stop-color="#320B0C"/>
<stop offset="0.2" stop-color="#25090B"/>
<stop offset="0.26" stop-color="#21090B"/>
<stop offset="0.31" stop-color="#27090B"/>
<stop offset="0.77" stop-color="#5C0F0E"/>
<stop offset="0.99" stop-color="#711210"/>
</linearGradient>
<linearGradient id="paint1_linear_838_2595" x1="8.04823" y1="30.3654" x2="23.9933" y2="-0.609556" gradientUnits="userSpaceOnUse">
<stop stop-color="#751416"/>
<stop offset="0.12" stop-color="#791416"/>
<stop offset="0.25" stop-color="#871717"/>
<stop offset="0.38" stop-color="#9B1C19"/>
<stop offset="0.51" stop-color="#A5201A"/>
<stop offset="0.72" stop-color="#C02C1E"/>
<stop offset="0.99" stop-color="#ED3F24"/>
<stop offset="1" stop-color="#EF4025"/>
</linearGradient>
<linearGradient id="paint2_linear_838_2595" x1="8.04823" y1="30.3654" x2="23.9933" y2="-0.609556" gradientUnits="userSpaceOnUse">
<stop stop-color="#06060B" stop-opacity="0.27"/>
<stop offset="0.19" stop-color="#1F080C" stop-opacity="0.45"/>
<stop offset="0.56" stop-color="#4A0D0E" stop-opacity="0.75"/>
<stop offset="0.84" stop-color="#65100F" stop-opacity="0.93"/>
<stop offset="1" stop-color="#701210"/>
</linearGradient>
<linearGradient id="paint3_linear_838_2595" x1="0.201742" y1="8.47114" x2="21.6474" y2="31.3597" gradientUnits="userSpaceOnUse">
<stop stop-color="#6F1210"/>
<stop offset="0.05" stop-color="#65100F"/>
<stop offset="0.23" stop-color="#470D0D"/>
<stop offset="0.41" stop-color="#320B0C"/>
<stop offset="0.58" stop-color="#25090B"/>
<stop offset="0.74" stop-color="#21090B"/>
<stop offset="0.75" stop-color="#27090B"/>
<stop offset="0.91" stop-color="#5C0F0E"/>
<stop offset="0.99" stop-color="#711210"/>
</linearGradient>
</defs>
</svg>
