<svg width="30" height="31" viewBox="0 0 30 31" fill="none" xmlns="http://www.w3.org/2000/svg">
<rect x="0.5" y="1.32227" width="29" height="29" rx="5.5" stroke="#E5E7EB"/>
<g clip-path="url(#clip0_753_3003)">
<mask id="mask0_753_3003" style="mask-type:luminance" maskUnits="userSpaceOnUse" x="6" y="8" width="18" height="16">
<path d="M23.7953 8.68164H6.07031V23.4524H23.7953V8.68164Z" fill="white"/>
</mask>
<g mask="url(#mask0_753_3003)">
<path d="M21.8547 8.80736L6.79789 14.7866C6.30868 14.9497 6.36304 15.6563 6.85225 15.8194L10.6572 17.0152L12.1792 21.7986C12.2879 22.1791 12.7771 22.2878 13.0489 22.016L15.2775 19.9504L19.5174 23.0488C19.8435 23.2662 20.2784 23.1031 20.3871 22.7226L23.3223 10.1119C23.4854 9.18785 22.6701 8.48122 21.8547 8.80736ZM13.0489 17.9392L12.5597 20.7658L11.4726 16.8522L22.0721 9.89449L13.0489 17.9392Z" fill="white"/>
</g>
</g>
<defs>
<clipPath id="clip0_753_3003">
<rect width="19" height="16" fill="white" transform="translate(5.5 7.82227)"/>
</clipPath>
</defs>
</svg>
