<svg width="30" height="31" viewBox="0 0 30 31" fill="none" xmlns="http://www.w3.org/2000/svg">
<rect x="0.5" y="1.32227" width="29" height="29" rx="5.5" stroke="#E5E7EB"/>
<g clip-path="url(#clip0_753_2998)">
<path d="M24.5378 9.84376C23.8285 10.1497 23.0567 10.3699 22.2616 10.4557C23.087 9.9653 23.7052 9.19055 24 8.27682C23.2255 8.7376 22.3769 9.06071 21.492 9.23182C21.1222 8.83643 20.6749 8.52145 20.178 8.3065C19.681 8.09155 19.1452 7.98124 18.6038 7.98243C16.4133 7.98243 14.6517 9.75799 14.6517 11.9369C14.6517 12.2429 14.6887 12.5488 14.7491 12.8432C11.4691 12.6717 8.54383 11.1047 6.59906 8.70564C6.2447 9.31089 6.059 10 6.06129 10.7014C6.06129 12.0736 6.75899 13.2836 7.82295 13.9952C7.19594 13.9705 6.58363 13.7982 6.03579 13.4922V13.5409C6.03579 15.4625 7.39412 17.055 9.20445 17.4212C8.86455 17.5095 8.51488 17.5547 8.16369 17.5556C7.90639 17.5556 7.66301 17.5302 7.4173 17.4954C7.91798 19.0624 9.37599 20.2005 11.1121 20.2375C9.75381 21.3015 8.05243 21.9273 6.205 21.9273C5.87353 21.9273 5.56756 21.9158 5.25 21.8787C7.00239 23.0029 9.0816 23.6519 11.3208 23.6519C18.5899 23.6519 22.5676 17.6298 22.5676 12.4028C22.5676 12.2313 22.5676 12.0597 22.5559 11.8882C23.3255 11.3249 24 10.6272 24.5378 9.84376Z" fill="white"/>
</g>
<defs>
<clipPath id="clip0_753_2998">
<rect width="19.995" height="16.77" fill="white" transform="translate(5.00391 7.43164)"/>
</clipPath>
</defs>
</svg>
